HIERARCHY
ROOT Hips
{
    OFFSET 0.000000 0.000000 0.000000
    CHANNELS 6 Xposition Yposition Zposition Zrotation Xrotation Yrotation
    JOINT Spine
    {
        OFFSET -0.000000 8.161387 0.000000
        CHANNELS 3 Zrotation Xrotation Yrotation
        JOINT Spine1
        {
            OFFSET -0.000000 24.903122 0.000000
            CHANNELS 3 Zrotation Xrotation Yrotation
            JOINT Neck
            {
                OFFSET -0.000000 24.800850 2.254623
                CHANNELS 3 Zrotation Xrotation Yrotation
                JOINT Head
                {
                    OFFSET -0.000000 13.934076 -1.990582
                    CHANNELS 3 Zrotation Xrotation Yrotation
                    End Site
                    {
                        OFFSET -0.000000 19.905823 0.000000
                    }
                }
            }
            JOINT LeftShoulder
            {
                OFFSET 3.997752 23.270357 -0.100198
                CHANNELS 3 Zrotation Xrotation Yrotation
                JOINT LeftArm
                {
                    OFFSET 10.924766 0.000000 0.000000
                    CHANNELS 3 Zrotation Xrotation Yrotation
                    JOINT LeftForeArm
                    {
                        OFFSET 29.012781 0.000000 0.000000
                        CHANNELS 3 Zrotation Xrotation Yrotation
                        JOINT LeftHand
                        {
                            OFFSET 29.873722 0.000000 0.000000
                            CHANNELS 3 Zrotation Xrotation Yrotation
                            End Site
                            {
                                OFFSET 14.929368 0.000000 0.000000
                            }
                        }
                    }
                }
            }
            JOINT RightShoulder
            {
                OFFSET -3.962684 23.270357 -0.100198
                CHANNELS 3 Zrotation Xrotation Yrotation
                JOINT RightArm
                {
                    OFFSET -10.924766 0.000000 0.000000
                    CHANNELS 3 Zrotation Xrotation Yrotation
                    JOINT RightForeArm
                    {
                        OFFSET -29.012781 0.000000 0.000000
                        CHANNELS 3 Zrotation Xrotation Yrotation
                        JOINT RightHand
                        {
                            OFFSET -29.873722 0.000000 0.000000
                            CHANNELS 3 Zrotation Xrotation Yrotation
                            End Site
                            {
                                OFFSET -14.929368 0.000000 0.000000
                            }
                        }
                    }
                }
            }
        }
    }
    JOINT LeftUpLeg
    {
        OFFSET 9.952911 0.000000 0.000000
        CHANNELS 3 Zrotation Xrotation Yrotation
        JOINT LeftLeg
        {
            OFFSET -0.000000 -36.972065 0.000000
            CHANNELS 3 Zrotation Xrotation Yrotation
            JOINT LeftFoot
            {
                OFFSET -0.000000 -44.005497 0.000000
                CHANNELS 3 Zrotation Xrotation Yrotation
                JOINT LeftToeBase
                {
                    OFFSET -0.000000 -6.469392 14.929368
                    CHANNELS 3 Zrotation Xrotation Yrotation
                    End Site
                    {
                        OFFSET -0.000000 0.000000 3.981164
                    }
                }
            }
        }
    }
    JOINT RightUpLeg
    {
        OFFSET -9.952911 0.000000 0.000000
        CHANNELS 3 Zrotation Xrotation Yrotation
        JOINT RightLeg
        {
            OFFSET -0.000000 -36.972065 0.000000
            CHANNELS 3 Zrotation Xrotation Yrotation
            JOINT RightFoot
            {
                OFFSET -0.000000 -44.005497 0.000000
                CHANNELS 3 Zrotation Xrotation Yrotation
                JOINT RightToeBase
                {
                    OFFSET -0.000000 -6.469392 14.929368
                    CHANNELS 3 Zrotation Xrotation Yrotation
                    End Site
                    {
                        OFFSET -0.000000 0.000000 3.981164
                    }
                }
            }
        }
    }
}
MOTION
Frames:    4
Frame Time:    0.008333
-4.336473    89.276596    -19.278408    -0.244047    2.125514    4.994630    2.315444    -0.911382    2.373031    -2.289601    6.039401    0.905543    -4.841577    9.466333    -9.311446    13.113846    4.303292    -8.015682    1.270298    10.799212    7.199863    -54.926083    80.764473    15.999655    43.847019    -20.191235    -81.274696    17.287064    17.314316    -20.010742    -0.871099    12.969160    -2.644032    64.517021    56.512882    -23.098682    -30.861017    -4.145187    89.824844    -29.705629    19.731394    29.747431    0.334879    -0.596895    0.325834    2.326090    10.217725    -0.645134    0.906266    -12.763011    -7.994997    -0.899029    0.247867    1.905156    0.165655    7.572656    4.670888    0.051696    -5.058321    0.149313    -1.428516    -5.073885    -15.927250    0.105308    0.457428    -0.248505    
-4.316337    89.274460    -19.319500    -0.249942    2.162844    4.976463    2.309410    -0.857850    2.352091    -2.247929    6.063200    0.897190    -4.902017    9.561222    -9.669793    13.356325    4.291548    -8.364071    1.233721    10.831564    7.163380    -54.948521    80.762405    16.045055    43.892895    -20.207428    -81.229378    17.333122    17.301825    -20.032797    -0.876613    12.995307    -2.629749    64.570053    56.485336    -23.130421    -30.819332    -4.146704    89.801750    -29.824951    19.627443    29.791529    0.316636    -0.648640    0.299459    2.333770    10.226477    -0.537790    0.893285    -12.778295    -8.064025    -0.911971    0.271396    1.919596    0.134904    7.538615    4.786151    0.064287    -5.122352    0.032038    -1.416308    -5.050014    -15.892968    0.098813    0.488408    -0.246586    
-4.296009    89.272331    -19.362047    -0.242930    2.197319    4.947919    2.277749    -0.794414    2.341109    -2.187173    6.083892    0.891201    -4.975593    9.616047    -10.022780    13.582511    4.338311    -8.713026    1.198563    10.838829    7.136986    -54.987247    80.807640    16.109011    43.960587    -20.233404    -81.172554    17.393091    17.292061    -20.052296    -0.892324    13.013787    -2.612713    64.620415    56.435593    -23.167950    -30.771202    -4.132275    89.789467    -29.904905    19.547312    29.838634    0.273231    -0.709053    0.310216    2.363891    10.227433    -0.389507    0.867509    -12.763594    -8.206822    -0.921796    0.264298    1.946480    0.103674    7.465961    5.025178    0.050321    -5.109659    -0.237534    -1.395351    -5.047575    -15.818913    0.102590    0.469165    -0.247424    
-4.273329    89.271965    -19.404598    -0.234771    2.232837    4.923047    2.259009    -0.743759    2.336213    -2.140599    6.131899    0.888400    -5.027637    9.661652    -10.378119    13.750021    4.404593    -9.074195    1.157258    10.844094    7.118576    -54.672085    80.824440    15.840212    43.970695    -20.231194    -81.175369    17.471525    17.297859    -20.025557    -0.924265    13.007087    -2.618210    64.756104    56.474545    -23.273823    -30.808634    -4.178742    89.732727    -29.718863    19.592583    29.728012    0.243808    -0.766228    0.265932    2.358637    10.256823    -0.352233    0.902364    -12.782693    -8.170123    -0.930204    0.288610    1.950086    0.047539    7.434573    5.358700    0.053611    -5.169913    -0.483359    -1.395650    -5.006111    -15.871323    0.080959    0.468359    -0.217582    
